<svg width="18" height="18" viewBox="0 0 18 18" fill="none" xmlns="http://www.w3.org/2000/svg">
<path d="M7 13C7 12.7348 6.89464 12.4804 6.70711 12.2929C6.51957 12.1054 6.26522 12 6 12C5.73478 12 5.48043 12.1054 5.29289 12.2929C5.10536 12.4804 5 12.7348 5 13C5 13.2652 5.10536 13.5196 5.29289 13.7071C5.48043 13.8946 5.73478 14 6 14C6.26522 14 6.51957 13.8946 6.70711 13.7071C6.89464 13.5196 7 13.2652 7 13Z" fill="black"/>
<path fill-rule="evenodd" clip-rule="evenodd" d="M1 4.5C1 4.10218 1.15804 3.72064 1.43934 3.43934C1.72064 3.15804 2.10218 3 2.5 3H9.707L14 7.293V16.5C14 16.8978 13.842 17.2794 13.5607 17.5607C13.2794 17.842 12.8978 18 12.5 18H2.5C2.10218 18 1.72064 17.842 1.43934 17.5607C1.15804 17.2794 1 16.8978 1 16.5V4.5ZM7.342 7.026C7.44151 6.9928 7.54893 6.99175 7.64907 7.02297C7.74921 7.0542 7.837 7.11613 7.9 7.2L8.2 7.6C8.52601 8.03469 8.94876 8.3875 9.43475 8.6305C9.92075 8.87349 10.4566 9 11 9V10C9.89309 9.99997 8.82502 9.59197 8 8.854V13C8.00001 13.4403 7.85475 13.8682 7.58673 14.2175C7.31872 14.5668 6.94294 14.8179 6.51767 14.9319C6.09241 15.0459 5.64142 15.0163 5.23466 14.8478C4.8279 14.6793 4.4881 14.3814 4.26796 14.0001C4.04782 13.6188 3.95965 13.1755 4.01711 12.739C4.07457 12.3025 4.27446 11.8972 4.58578 11.5858C4.89709 11.2745 5.30244 11.0746 5.73894 11.0172C6.17545 10.9597 6.61871 11.0479 7 11.268V7.5C7.00008 7.3951 7.03315 7.29289 7.09452 7.20782C7.1559 7.12276 7.24248 7.05915 7.342 7.026Z" fill="black"/>
<rect x="14" width="1" height="6" rx="0.5" fill="black"/>
<rect x="11.5" y="3.5" width="1" height="6" rx="0.5" transform="rotate(-90 11.5 3.5)" fill="black"/>
</svg>
