<svg width="18" height="18" viewBox="0 0 18 18" fill="none" xmlns="http://www.w3.org/2000/svg">
<path d="M9 0.25C6.68802 0.277893 4.47859 1.20872 2.84366 2.84366C1.20872 4.47859 0.277893 6.68802 0.25 9C0.277893 11.312 1.20872 13.5214 2.84366 15.1563C4.47859 16.7913 6.68802 17.7221 9 17.75C11.312 17.7221 13.5214 16.7913 15.1563 15.1563C16.7913 13.5214 17.7221 11.312 17.75 9C17.7221 6.68802 16.7913 4.47859 15.1563 2.84366C13.5214 1.20872 11.312 0.277893 9 0.25ZM14 9.625H9.625V14H8.375V9.625H4V8.375H8.375V4H9.625V8.375H14V9.625Z" fill="white"/>
</svg>
