<svg width="19" height="19" viewBox="0 0 19 19" fill="none" xmlns="http://www.w3.org/2000/svg">
<path d="M12.6667 1.58398H6.33334C3.71371 1.58398 1.58334 3.71436 1.58334 6.33398V16.6257C1.58334 16.8356 1.66674 17.037 1.81521 17.1854C1.96368 17.3339 2.16504 17.4173 2.375 17.4173H12.6667C15.2863 17.4173 17.4167 15.2869 17.4167 12.6673V6.33398C17.4167 3.71436 15.2863 1.58398 12.6667 1.58398ZM15.8333 12.6673C15.8333 14.4137 14.4131 15.834 12.6667 15.834H3.16667V6.33398C3.16667 4.58757 4.58692 3.16732 6.33334 3.16732H12.6667C14.4131 3.16732 15.8333 4.58757 15.8333 6.33398V12.6673Z" fill="black"/>
<path d="M5.54166 11.8649V13.4475H7.12421L11.5013 9.07589L9.91958 7.49414L5.54166 11.8649Z" fill="black"/>
<path d="M12.247 8.32927L10.6653 6.74593L11.871 5.54102L13.4543 7.12356L12.247 8.32927Z" fill="black"/>
</svg>
