<svg width="16" height="16" viewBox="0 0 16 16" fill="none" xmlns="http://www.w3.org/2000/svg">
<path d="M8.09867 7.17101C8.08698 7.15607 8.07203 7.14398 8.05498 7.13567C8.03792 7.12737 8.0192 7.12305 8.00023 7.12305C7.98126 7.12305 7.96254 7.12737 7.94548 7.13567C7.92843 7.14398 7.91349 7.15607 7.90179 7.17101L6.15179 9.38507C6.13737 9.40349 6.12841 9.4256 6.12596 9.44888C6.12351 9.47215 6.12765 9.49564 6.13792 9.51666C6.14819 9.53769 6.16417 9.5554 6.18403 9.56777C6.20389 9.58015 6.22683 9.58668 6.25023 9.58663H7.40492V13.3741C7.40492 13.4429 7.46117 13.4991 7.52992 13.4991H8.46742C8.53617 13.4991 8.59242 13.4429 8.59242 13.3741V9.5882H9.75023C9.85492 9.5882 9.91273 9.46788 9.84867 9.38663L8.09867 7.17101Z" fill="black"/>
<path d="M12.6781 5.72969C11.9625 3.84219 10.1391 2.5 8.00313 2.5C5.86719 2.5 4.04375 3.84063 3.32812 5.72813C1.98906 6.07969 1 7.3 1 8.75C1 10.4766 2.39844 11.875 4.12344 11.875H4.75C4.81875 11.875 4.875 11.8188 4.875 11.75V10.8125C4.875 10.7438 4.81875 10.6875 4.75 10.6875H4.12344C3.59687 10.6875 3.10156 10.4781 2.73281 10.0984C2.36563 9.72031 2.17031 9.21094 2.1875 8.68281C2.20156 8.27031 2.34219 7.88281 2.59688 7.55625C2.85781 7.22344 3.22344 6.98125 3.62969 6.87344L4.22187 6.71875L4.43906 6.14688C4.57344 5.79063 4.76094 5.45781 4.99688 5.15625C5.2298 4.85736 5.50571 4.59461 5.81563 4.37656C6.45781 3.925 7.21406 3.68594 8.00313 3.68594C8.79219 3.68594 9.54844 3.925 10.1906 4.37656C10.5016 4.59531 10.7766 4.85781 11.0094 5.15625C11.2453 5.45781 11.4328 5.79219 11.5672 6.14688L11.7828 6.71719L12.3734 6.87344C13.2203 7.10156 13.8125 7.87188 13.8125 8.75C13.8125 9.26719 13.6109 9.75469 13.2453 10.1203C13.066 10.3007 12.8527 10.4437 12.6178 10.541C12.3828 10.6384 12.1309 10.6882 11.8766 10.6875H11.25C11.1813 10.6875 11.125 10.7438 11.125 10.8125V11.75C11.125 11.8188 11.1813 11.875 11.25 11.875H11.8766C13.6016 11.875 15 10.4766 15 8.75C15 7.30156 14.0141 6.08281 12.6781 5.72969Z" fill="black"/>
</svg>
